<svg width="18" height="18" viewBox="0 0 18 18" fill="none" xmlns="http://www.w3.org/2000/svg">
<path fill-rule="evenodd" clip-rule="evenodd" d="M2.79337 1.25774C2.40284 0.867213 1.76968 0.867213 1.37915 1.25774L1.257 1.37989C0.86648 1.77041 0.866481 2.40358 1.257 2.7941L7.46353 9.00062L1.25701 15.2071C0.866481 15.5977 0.86648 16.2308 1.257 16.6214L1.37915 16.7435C1.76968 17.134 2.40284 17.134 2.79337 16.7435L8.99989 10.537L15.2064 16.7435C15.5969 17.134 16.2301 17.134 16.6206 16.7435L16.7428 16.6214C17.1333 16.2308 17.1333 15.5977 16.7428 15.2071L10.5362 9.00062L16.7428 2.7941C17.1333 2.40358 17.1333 1.77041 16.7428 1.37989L16.6206 1.25774C16.2301 0.867213 15.5969 0.867213 15.2064 1.25774L8.99989 7.46426L2.79337 1.25774Z" fill="white"/>
</svg>
