<svg width="98" height="52" viewBox="0 0 98 52" fill="none" xmlns="http://www.w3.org/2000/svg">
<path fill-rule="evenodd" clip-rule="evenodd" d="M36.5703 0.726562C36.018 0.726562 35.5703 1.17428 35.5703 1.72656V6.00151C35.5703 6.5538 36.018 7.00152 36.5703 7.00152H72.8973C83.0242 7.00152 90.9777 14.7981 90.9777 24.891V24.891C90.9777 25.1766 91.2092 25.408 91.4948 25.408H96.757C97.0425 25.408 97.274 25.1766 97.274 24.891V24.891C97.274 11.4017 86.432 0.726562 72.8973 0.726562H36.5703Z" fill="#6B7B84" stroke="#80949F" stroke-width="0.5"/>
<path fill-rule="evenodd" clip-rule="evenodd" d="M7.10658 25.8465V25.8465C7.10658 25.6044 6.91035 25.4082 6.66829 25.4082H1.16412C0.922059 25.4082 0.72583 25.6044 0.72583 25.8465V25.8465C0.72583 39.4959 10.9491 50.7654 24.1685 51.5029L66.5101 51.5406C67.0628 51.5411 67.511 51.0933 67.511 50.5406V45.961C67.511 45.4087 67.0633 44.961 66.511 44.961H25.6263C15.3901 44.9327 7.10658 36.4173 7.10658 25.8465Z" fill="#6B7B84" stroke="#80949F" stroke-width="0.5"/>
<path fill-rule="evenodd" clip-rule="evenodd" d="M28.1413 39.9257C30.8801 39.9257 33.1614 39.3936 35.4147 38.2988L35.5702 38.1532V30.3188L34.7271 31.3982C33.1046 33.1711 30.9257 34.147 28.4606 34.147C23.869 34.147 19.2573 31.1792 19.2573 25.5071C19.2573 21.2207 22.4379 16.6653 28.2991 16.6653C29.4686 16.6653 32.3128 16.9418 34.7229 19.5013L35.5702 20.545V12.7461L35.4215 12.5986C33.1256 11.448 30.7841 10.8887 28.1134 10.8887C23.5465 10.8887 19.9818 12.091 17.1436 14.5622C15.3433 16.111 12.3406 19.5818 12.3406 25.4256C12.3406 29.7464 13.8791 33.1208 17.1666 36.0477C20.225 38.7295 23.616 39.9257 28.1413 39.9257" fill="#6B7B84"/>
<path d="M28.1413 39.9257C30.8801 39.9257 33.1614 39.3936 35.4147 38.2988L35.5702 38.1532V30.3188L34.7271 31.3982C33.1046 33.1711 30.9257 34.147 28.4606 34.147C23.869 34.147 19.2573 31.1792 19.2573 25.5071C19.2573 21.2207 22.4379 16.6653 28.2991 16.6653C29.4686 16.6653 32.3128 16.9418 34.7229 19.5013L35.5702 20.545V12.7461L35.4215 12.5986C33.1256 11.448 30.7841 10.8887 28.1134 10.8887C23.5465 10.8887 19.9818 12.091 17.1436 14.5622C15.3433 16.111 12.3406 19.5818 12.3406 25.4256C12.3406 29.7464 13.8791 33.1208 17.1666 36.0477C20.225 38.7295 23.616 39.9257 28.1413 39.9257" stroke="#80949F" stroke-width="0.5"/>
<path fill-rule="evenodd" clip-rule="evenodd" d="M47.911 17.422H49.2753C50.5268 17.422 51.9532 17.4903 53.0327 18.2261C53.5599 18.6027 54.4444 19.4744 54.4444 21.0577C54.4444 22.2278 53.9273 23.2769 53.0732 23.9315C51.9782 24.7264 50.6767 24.6808 49.6308 24.6808H47.911V17.422ZM50.9767 29.9512C54.2081 29.9512 56.7375 29.0191 58.494 27.2631C60.6547 25.1068 60.9777 22.1406 60.9777 20.5768C60.9777 18.9036 60.5811 15.6399 57.9209 13.2768C55.7405 11.3661 53.414 10.8887 50.1322 10.8887H41.3777V39.9257H48.0363V29.9512H50.9767V29.9512Z" fill="#6B7B84"/>
<path d="M47.911 17.422V17.172H47.661V17.422H47.911ZM53.0327 18.2261L53.1781 18.0227L53.1735 18.0196L53.0327 18.2261ZM53.0732 23.9315L53.2201 24.1339L53.2253 24.13L53.0732 23.9315ZM47.911 24.6808H47.661V24.9308H47.911V24.6808ZM58.494 27.2631L58.3174 27.0862L58.3173 27.0863L58.494 27.2631ZM57.9209 13.2768L58.087 13.0899L58.0857 13.0888L57.9209 13.2768ZM41.3777 10.8887V10.6387H41.1277V10.8887H41.3777ZM41.3777 39.9257H41.1277V40.1757H41.3777V39.9257ZM48.0363 39.9257V40.1757H48.2863V39.9257H48.0363ZM48.0363 29.9512V29.7012H47.7863V29.9512H48.0363ZM47.911 17.672H49.2753V17.172H47.911V17.672ZM49.2753 17.672C50.5325 17.672 51.8837 17.7455 52.8919 18.4327L53.1735 18.0196C52.0226 17.2351 50.5211 17.172 49.2753 17.172V17.672ZM52.8874 18.4296C53.375 18.7779 54.1944 19.5827 54.1944 21.0577H54.6944C54.6944 19.3661 53.7447 18.4275 53.178 18.0227L52.8874 18.4296ZM54.1944 21.0577C54.1944 22.1537 53.7106 23.128 52.9211 23.7331L53.2253 24.13C54.144 23.4258 54.6944 22.3019 54.6944 21.0577H54.1944ZM52.9264 23.7292C51.909 24.4677 50.697 24.4308 49.6308 24.4308V24.9308C50.6563 24.9308 52.0474 24.9851 53.2201 24.1339L52.9264 23.7292ZM49.6308 24.4308H47.911V24.9308H49.6308V24.4308ZM48.161 24.6808V17.422H47.661V24.6808H48.161ZM50.9767 30.2012C54.2566 30.2012 56.8561 29.254 58.6708 27.4399L58.3173 27.0863C56.6189 28.7842 54.1597 29.7012 50.9767 29.7012V30.2012ZM58.6706 27.4401C60.9027 25.2126 61.2277 22.162 61.2277 20.5768H60.7277C60.7277 22.1192 60.4068 25.0011 58.3174 27.0862L58.6706 27.4401ZM61.2277 20.5768C61.2277 18.8755 60.826 15.5231 58.087 13.0899L57.7549 13.4637C60.3361 15.7566 60.7277 18.9316 60.7277 20.5768H61.2277ZM58.0857 13.0888C55.8398 11.1207 53.4415 10.6387 50.1322 10.6387V11.1387C53.3865 11.1387 55.6412 11.6115 57.7562 13.4648L58.0857 13.0888ZM50.1322 10.6387H41.3777V11.1387H50.1322V10.6387ZM41.1277 10.8887V39.9257H41.6277V10.8887H41.1277ZM41.3777 40.1757H48.0363V39.6757H41.3777V40.1757ZM48.2863 39.9257V29.9512H47.7863V39.9257H48.2863ZM48.0363 30.2012H50.9767V29.7012H48.0363V30.2012Z" fill="#80949F"/>
<path fill-rule="evenodd" clip-rule="evenodd" d="M80.9528 24.602C79.5051 23.3194 77.4843 22.5758 75.1908 21.8046C73.5567 21.236 72.6563 20.9227 72.056 20.3754C71.5822 19.9732 71.371 19.5366 71.371 18.9595C71.371 17.6955 72.2299 16.3446 74.6412 16.3446C76.2799 16.3446 77.6519 17.0453 78.7194 18.4263L79.1432 18.9747L82.6595 14.4989L82.3389 14.1778C80.1884 12.0257 77.3546 10.8887 74.1437 10.8887C67.6654 10.8887 64.7655 15.1032 64.7655 19.2801C64.7655 21.5215 65.5649 23.3293 67.1364 24.6508C68.5434 25.8567 70.2593 26.5324 71.9052 27.084L72.0912 27.1456C73.5528 27.6287 75.0643 28.1287 75.9671 28.9367C76.5952 29.5138 76.8751 30.1409 76.8751 30.97C76.8751 32.8701 75.3788 34.147 73.1518 34.147C71.3914 34.147 69.0733 33.2841 67.8469 30.8629L67.5261 30.2286L63.1555 34.2744L63.4133 34.639C64.8077 36.6134 67.9542 39.9257 73.3591 39.9257C79.3188 39.9257 83.4814 36.0941 83.4814 30.6084C83.4814 27.4707 82.1049 25.6085 80.9528 24.602" fill="#6B7B84"/>
<path d="M80.9528 24.602C79.5051 23.3194 77.4843 22.5758 75.1908 21.8046C73.5567 21.236 72.6563 20.9227 72.056 20.3754C71.5822 19.9732 71.371 19.5366 71.371 18.9595C71.371 17.6955 72.2299 16.3446 74.6412 16.3446C76.2799 16.3446 77.6519 17.0453 78.7194 18.4263L79.1432 18.9747L82.6595 14.4989L82.3389 14.1778C80.1884 12.0257 77.3546 10.8887 74.1437 10.8887C67.6654 10.8887 64.7655 15.1032 64.7655 19.2801C64.7655 21.5215 65.5649 23.3293 67.1364 24.6508C68.5434 25.8567 70.2593 26.5324 71.9052 27.084L72.0912 27.1456C73.5528 27.6287 75.0643 28.1287 75.9671 28.9367C76.5952 29.5138 76.8751 30.1409 76.8751 30.97C76.8751 32.8701 75.3788 34.147 73.1518 34.147C71.3914 34.147 69.0733 33.2841 67.8469 30.8629L67.5261 30.2286L63.1555 34.2744L63.4133 34.639C64.8077 36.6134 67.9542 39.9257 73.3591 39.9257C79.3188 39.9257 83.4814 36.0941 83.4814 30.6084C83.4814 27.4707 82.1049 25.6085 80.9528 24.602" stroke="#80949F" stroke-width="0.5"/>
</svg>
